HIERARCHY
ROOT hip
{
  OFFSET 0 0 0
  CHANNELS 6 Xposition Yposition Zposition Zrotation Yrotation Xrotation
  JOINT abdomen
  {
    OFFSET 0 20.6881 -0.73152
    CHANNELS 3 Zrotation Xrotation Yrotation
    JOINT chest
    {
      OFFSET 0 11.7043 -0.48768
      CHANNELS 3 Zrotation Xrotation Yrotation
      JOINT neck
      {
        OFFSET 0 22.1894 -2.19456
        CHANNELS 3 Zrotation Xrotation Yrotation
        JOINT head
        {
          OFFSET -0.24384 7.07133 1.2192
          CHANNELS 3 Zrotation Xrotation Yrotation
          JOINT leftEye
          {
            OFFSET 4.14528 8.04674 8.04672
            CHANNELS 3 Zrotation Xrotation Yrotation
            End Site
            {
              OFFSET 1 0 0
            }
          }
          JOINT rightEye
          {
            OFFSET -3.6576 8.04674 8.04672
            CHANNELS 3 Zrotation Xrotation Yrotation
            End Site
            {
              OFFSET 1 0 0
            }
          }
        }
      }
      JOINT rCollar
      {
        OFFSET -2.68224 19.2634 -4.8768
        CHANNELS 3 Zrotation Xrotation Yrotation
        JOINT rShldr
        {
          OFFSET -8.77824 -1.95073 1.46304
          CHANNELS 3 Zrotation Xrotation Yrotation
          JOINT rForeArm
          {
            OFFSET -28.1742 -1.7115 0.48768
            CHANNELS 3 Zrotation Xrotation Yrotation
            JOINT rHand
            {
              OFFSET -22.5879 0.773209 7.07136
              CHANNELS 3 Zrotation Xrotation Yrotation
              JOINT rThumb1
              {
                OFFSET -1.2192 -0.487915 3.41376
                CHANNELS 3 Zrotation Xrotation Yrotation
                JOINT rThumb2
                {
                  OFFSET -3.37035 -0.52449 3.41376
                  CHANNELS 3 Zrotation Xrotation Yrotation
                  End Site
                  {
                    OFFSET -1.78271 -1.18214 1.43049
                  }
                }
              }
              JOINT rIndex1
              {
                OFFSET -7.75947 0.938293 5.60832
                CHANNELS 3 Zrotation Xrotation Yrotation
                JOINT rIndex2
                {
                  OFFSET -2.54057 -0.884171 1.56538
                  CHANNELS 3 Zrotation Xrotation Yrotation
                  End Site
                  {
                    OFFSET -1.62519 -0.234802 1.16502
                  }
                }
              }
              JOINT rMid1
              {
                OFFSET -8.24714 1.18213 3.41376
                CHANNELS 3 Zrotation Xrotation Yrotation
                JOINT rMid2
                {
                  OFFSET -3.10165 -0.590103 1.0647
                  CHANNELS 3 Zrotation Xrotation Yrotation
                  End Site
                  {
                    OFFSET -2.48547 -0.328903 0.83742
                  }
                }
              }
              JOINT rRing1
              {
                OFFSET -8.82822 0.546677 1.51678
                CHANNELS 3 Zrotation Xrotation Yrotation
                JOINT rRing2
                {
                  OFFSET -2.60934 -0.819778 -0.0198488
                  CHANNELS 3 Zrotation Xrotation Yrotation
                  End Site
                  {
                    OFFSET -2.33842 -0.294052 0.168128
                  }
                }
              }
              JOINT rPinky1
              {
                OFFSET -8.27202 -0.0477905 -0.4584
                CHANNELS 3 Zrotation Xrotation Yrotation
                JOINT rPinky2
                {
                  OFFSET -1.82734 -0.647385 -0.700984
                  CHANNELS 3 Zrotation Xrotation Yrotation
                  End Site
                  {
                    OFFSET -1.69225 -0.51767 -0.607171
                  }
                }
              }
            }
          }
        }
      }
      JOINT lCollar
      {
        OFFSET 2.68224 19.2634 -4.8768
        CHANNELS 3 Zrotation Xrotation Yrotation
        JOINT lShldr
        {
          OFFSET 8.77824 -1.95073 1.46304
          CHANNELS 3 Zrotation Xrotation Yrotation
          JOINT lForeArm
          {
            OFFSET 28.1742 -1.7115 0.48768
            CHANNELS 3 Zrotation Xrotation Yrotation
            JOINT lHand
            {
              OFFSET 22.5879 0.773209 7.07136
              CHANNELS 3 Zrotation Xrotation Yrotation
              JOINT lThumb1
              {
                OFFSET 1.2192 -0.487915 3.41376
                CHANNELS 3 Zrotation Xrotation Yrotation
                JOINT lThumb2
                {
                  OFFSET 3.37035 -0.52449 3.41376
                  CHANNELS 3 Zrotation Xrotation Yrotation
                  End Site
                  {
                    OFFSET 1.78271 -1.18214 1.43049
                  }
                }
              }
              JOINT lIndex1
              {
                OFFSET 7.75947 0.938293 5.60832
                CHANNELS 3 Zrotation Xrotation Yrotation
                JOINT lIndex2
                {
                  OFFSET 2.54057 -0.884171 1.56538
                  CHANNELS 3 Zrotation Xrotation Yrotation
                  End Site
                  {
                    OFFSET 1.62519 -0.234802 1.16502
                  }
                }
              }
              JOINT lMid1
              {
                OFFSET 8.24714 1.18213 3.41376
                CHANNELS 3 Zrotation Xrotation Yrotation
                JOINT lMid2
                {
                  OFFSET 3.10165 -0.590103 1.0647
                  CHANNELS 3 Zrotation Xrotation Yrotation
                  End Site
                  {
                    OFFSET 2.48547 -0.328903 0.83742
                  }
                }
              }
              JOINT lRing1
              {
                OFFSET 8.82822 0.546677 1.51678
                CHANNELS 3 Zrotation Xrotation Yrotation
                JOINT lRing2
                {
                  OFFSET 2.60934 -0.819778 -0.0198488
                  CHANNELS 3 Zrotation Xrotation Yrotation
                  End Site
                  {
                    OFFSET 2.33842 -0.294052 0.168128
                  }
                }
              }
              JOINT lPinky1
              {
                OFFSET 8.27202 -0.0477905 -0.4584
                CHANNELS 3 Zrotation Xrotation Yrotation
                JOINT lPinky2
                {
                  OFFSET 1.82734 -0.647385 -0.700984
                  CHANNELS 3 Zrotation Xrotation Yrotation
                  End Site
                  {
                    OFFSET 1.69225 -0.51767 -0.607171
                  }
                }
              }
            }
          }
        }
      }
    }
  }
  JOINT rButtock
  {
    OFFSET -8.77824 4.35084 1.2192
    CHANNELS 3 Zrotation Xrotation Yrotation
    JOINT rThigh
    {
      OFFSET 0 -1.70687 -2.19456
      CHANNELS 3 Zrotation Xrotation Yrotation
      JOINT rShin
      {
        OFFSET 0 -36.8199 0.73152
        CHANNELS 3 Zrotation Xrotation Yrotation
        JOINT rFoot
        {
          OFFSET 0.73152 -45.1104 -5.12064
          CHANNELS 3 Zrotation Xrotation Yrotation
          End Site
          {
            OFFSET -1.1221 -3.69964 12.103
          }
        }
      }
    }
  }
  JOINT lButtock
  {
    OFFSET 8.77824 4.35084 1.2192
    CHANNELS 3 Zrotation Xrotation Yrotation
    JOINT lThigh
    {
      OFFSET 0 -1.70687 -2.19456
      CHANNELS 3 Zrotation Xrotation Yrotation
      JOINT lShin
      {
        OFFSET 0 -36.8199 0.73152
        CHANNELS 3 Zrotation Xrotation Yrotation
        JOINT lFoot
        {
          OFFSET -0.73152 -45.1104 -5.12064
          CHANNELS 3 Zrotation Xrotation Yrotation
          End Site
          {
            OFFSET 1.1221 -3.69964 12.103
          }
        }
      }
    }
  }
}
MOTION
Frames:	4
Frame Time:	0.03333
-1.34511973336339 62.69265365600586 -1.453008247539401 -24.54555720090866 -16.141254901885986 8.982582539319992 -11.476174592971802 20.02680614590645 -6.23542383313179 2.4051066488027573 -4.925233796238899 -4.35313705354929 -4.688901007175446 14.789333045482635 -2.403295822441578 1.0608753561973572 -15.803159773349762 -11.222133189439774 3.6043695732951164 -11.754721999168396 4.013087935745716 -12.976094037294388 6.962231397628784 1.0972964018583298 -0.07799595594406128 1.446310468018055 -1.1221681907773018 63.76490592956543 36.013795137405396 21.374519616365433 -14.596958309412003 -32.065492272377014 67.10578501224518 -1.17469422519207 -9.60970513522625 -14.852618426084518 -3.7585147842764854 5.6267280131578445 8.081663399934769 -2.38582793623209 3.7320799380540848 4.137873686850071 -1.8046789057552814 2.5331472605466843 1.2161013297736645 0.13419024646282196 2.4230828136205673 -0.8922582864761353 7.0911625027656555 5.7703180611133575 -4.491517245769501 -1.990043856203556 -4.59402859210968 -6.113974079489708 -7.992619425058365 -5.364533364772797 0.8241100609302521 -3.0983564257621765 0.03837704658508301 4.6099937707185745 -2.1171327866613865 -0.9662865847349167 6.925245746970177 -0.8331310003995895 -1.540711484849453 5.072768032550812 0.6463101971894503 -1.8738022819161415 -0.5574461817741394 -50.68516731262207 40.367779433727264 -34.038037061691284 15.729510337114334 -17.23019689321518 -57.85566687583923 24.921686053276062 -12.53478616476059 25.117353200912476 -1.651909500360489 -2.1933214366436005 -2.8448407351970673 -4.068800769746304 4.189853556454182 0.996796041727066 6.672696992754936 1.3994257897138596 -1.4236156269907951 0.22571124136447906 -4.481405317783356 -6.533896028995514 -0.12357054278254509 10.090500488877296 -3.3169759064912796 -12.230128794908524 5.23183811455965 8.154948055744171 -1.7914645001292229 4.620204269886017 1.0152268409729004 -5.605004467070103 -3.704165853559971 4.612045660614967 -6.759359836578369 -6.49647518992424 3.324149139225483 -3.646869510412216 -12.243184447288513 -2.862415909767151 1.508310567587614 3.6845431476831436 5.890171900391579 -45.66372334957123 -39.79228466749191 -35.60053914785385 -8.719989582896233 58.48278343677521 5.0324540957808495 4.327585995197296 8.851080536842346 6.509894281625748 8.529041782021523 1.7474115639925003 1.2985123693943024 33.88325214385986 -27.09988921880722 14.850056916475296 -6.0653020441532135 62.3233687877655 -3.9687587320804596 1.36819364503026 -2.1087339520454407 15.855143666267395
-1.3780683726072311 63.875938415527344 -1.3294288869947195 -22.216836512088776 -15.913621187210083 11.615449637174606 -11.58222109079361 19.61348846554756 -5.513148196041584 5.064699277281761 -5.884085968136787 -4.757885076105595 -7.132189571857452 13.35802048444748 -1.7262204363942146 2.7871182560920715 -16.71331912279129 -13.037752658128738 3.7574579939246178 -12.190430760383606 7.815322726964951 -14.98328760266304 6.859191656112671 0.10110251605510712 0.5604127049446106 0.44225502759218216 -0.7609926536679268 65.01631200313568 35.718457102775574 23.14915895462036 -15.70265606045723 -32.73618936538696 67.75226712226868 0.20964749157428741 -10.969754084944725 -14.916283339262009 -4.046916626393795 6.9631654769182205 6.758773773908615 -1.0375726595520973 4.897770658135414 4.453875459730625 -0.7988612540066242 1.2490396108478308 0.5884858779609203 0.18837086856365204 2.93937049806118 -0.16910254955291748 5.434157811105251 6.6499753296375275 -5.293690860271454 -1.1411944404244423 -4.681203067302704 -5.990184769034386 -9.069740921258926 -3.9991173148155212 -1.5049968659877777 -1.1332735419273376 2.44820237159729 3.757016435265541 -1.0138007439672947 -0.5585747212171555 7.689922079443932 -2.161465510725975 -2.35827025026083 5.051186978816986 0.7535985577851534 -1.3058498874306679 -2.2434934973716736 -52.39084303379059 40.7803139090538 -33.530133962631226 17.54235103726387 -19.174819886684418 -60.182998180389404 26.57244086265564 -12.52004474401474 26.354361176490784 -0.11395230889320374 -4.161301106214523 -5.634032338857651 -4.415363632142544 4.3584223464131355 1.2395037710666656 6.001962348818779 1.2720637768507004 -1.3991860672831535 -0.610370859503746 -6.737593710422516 -7.126610577106476 -1.0886132530868053 10.421935692429543 -4.994751289486885 -14.113720804452896 4.581842310726643 9.947704374790192 -2.3811696097254753 3.316650688648224 0.38599133491516113 -6.539614498615265 -5.04228238016367 2.9385242611169815 -5.46253826469183 -8.317067474126816 2.1640240028500557 -2.5210659205913544 -13.828010559082031 -1.0646116733551025 0.25110555812716484 3.181564584374428 5.360977426171303 -43.826066851615906 -40.64924508333206 -34.89223212003708 -7.589277550578117 58.45276415348053 6.3035935163497925 5.1682814955711365 11.711777150630951 9.39274325966835 10.247640386223793 1.2853098660707474 1.7628778517246246 35.57969570159912 -26.88664823770523 14.164398461580276 -6.536947041749954 62.95889139175415 -2.140897661447525 2.965025156736374 -0.3898724913597107 16.30718171596527
-1.3934445064514875 66.26207733154297 -1.162581479176879 -16.644965708255768 -15.24628758430481 17.04907938838005 -12.872065901756287 20.880800038576126 -5.436289496719837 4.420743808150291 -5.107919052243233 -4.0884727612137794 -9.387578666210175 13.418885171413422 -3.1824560835957527 2.8159627318382263 -16.214573085308075 -16.41602709889412 3.7095698341727257 -13.14936876296997 9.055104106664658 -16.14385798573494 6.906709671020508 1.331024095416069 -0.28678983449935913 -0.19314955919981003 -1.6758083179593086 60.75433015823364 34.322289526462555 29.70151662826538 -15.766481906175613 -32.095441818237305 66.08554244041443 1.696755364537239 -11.13922007381916 -12.49274656176567 -4.18137039989233 6.690325811505318 5.975657254457474 -0.9276315942406654 6.090044751763344 4.696551002562046 -0.5326895602047443 0.3403179254382849 0.7709404639899731 -0.5838800221681595 3.1566347926855087 -0.6398731470108032 5.0482093915343285 6.112138777971268 -5.03298819065094 -1.0656097903847694 -5.790301859378815 -5.71715734899044 -8.391088396310806 -3.499947488307953 -2.3800139129161835 -0.05544394254684448 2.674891948699951 2.9223398119211197 -0.9700378216803074 -1.122385784983635 8.250096067786217 -2.9233603924512863 -2.7075153216719627 5.710085034370422 0.2181599009782076 -0.8820072188973427 -2.9254934191703796 -51.441330313682556 41.896080672740936 -32.34174370765686 19.127252250909805 -19.629384577274323 -61.16990625858307 25.81316649913788 -9.442000687122345 24.984964728355408 -0.3888680040836334 -5.267218798398972 -6.469561904668808 -4.053243957459927 3.9197631552815437 1.2897254526615143 6.675727888941765 0.5106436461210251 -0.9737823531031609 -0.4969831556081772 -6.746090948581696 -7.976827919483185 -0.626672487705946 10.711348727345467 -4.789165332913399 -15.249561220407486 4.752302058041096 9.924900233745575 -2.9129229113459587 3.248112201690674 0.01168370246887207 -6.326282322406769 -5.045753158628941 4.12021167576313 -5.412394367158413 -9.304587095975876 1.9445737078785896 -3.4091131389141083 -13.886144757270813 -0.7764887809753418 0.2243424765765667 2.4524543434381485 4.433582201600075 -44.22419250011444 -41.11767679452896 -34.8636719584465 -11.528263092041016 55.63127875328064 9.53712522983551 7.36021488904953 11.775881946086884 10.991296917200089 10.522341504693031 0.7938433438539505 1.9852758944034576 30.99089741706848 -24.776484668254852 8.694558888673782 -3.942277282476425 59.11426663398743 -2.926143854856491 2.664060015231371 -0.8930924534797668 17.422229647636414
-1.3973769210278988 67.5883560180664 -0.9564998205751181 -14.085569679737091 -15.21480917930603 19.645790308713913 -13.592716455459595 22.398436814546585 -5.7368870079517365 1.0812755674123764 -3.0159784108400345 -3.429708816111088 -8.073408901691437 14.817582070827484 -4.801662750542164 1.1311224102973938 -14.760048687458038 -17.30163887143135 3.9250772818922997 -13.321121335029602 5.993271321058273 -14.279250651597977 6.909123659133911 2.7694713324308395 -1.2865054607391357 0.955670066177845 -1.909332163631916 55.0379741191864 33.243848383426666 34.706338942050934 -14.447626322507858 -31.069716811180115 64.38984990119934 1.2462622672319412 -9.789741709828377 -10.390087142586708 -4.17438592761755 5.289418771862984 6.932690888643265 -2.576516903936863 5.119471326470375 4.86324492841959 -1.9012813456356525 1.506880447268486 1.7827984504401684 -0.8046741038560867 2.806740626692772 -1.2246805429458618 6.849484741687775 5.0737108290195465 -3.4505170583724976 -2.348719574511051 -6.798356473445892 -5.6063395366072655 -6.640496402978897 -4.868163764476776 -1.1446528136730194 -1.9152018427848816 -0.1456010341644287 3.6215192824602127 -2.038962487131357 -1.8779855221509933 8.135340437293053 -1.7672719806432724 -1.9752078875899315 5.909045934677124 -0.4588779341429472 -1.4056066051125526 -1.6404417157173157 -49.091039299964905 42.871675193309784 -31.88904047012329 18.469638973474503 -18.570078313350677 -59.35614824295044 22.48498097062111 -6.996265947818756 21.653960198163986 -2.0772434771060944 -3.872513025999069 -3.980058878660202 -3.734876476228237 3.5822205618023872 1.2802518904209137 7.337085530161858 0.15418343245983124 -1.0315785929560661 0.6240621954202652 -4.083204567432404 -8.405369818210602 0.7325852103531361 10.637630894780159 -3.433094099164009 -14.014570266008377 5.779802352190018 7.875416278839111 -3.065272383391857 4.871688187122345 -0.015964508056640625 -5.87431937456131 -3.501562513411045 6.623023822903633 -7.13312029838562 -8.112194985151291 3.031259961426258 -4.934222549200058 -12.39555537700653 -2.4996042251586914 1.7438997142016888 2.328493371605873 4.8427049070596695 -46.65852248668671 -41.04071348905563 -35.49452215433121 -16.1913800239563 52.52614438533783 11.074248254299164 8.37319403886795 9.07044231891632 9.417494684457779 8.973344340920448 0.9756220132112503 1.670459657907486 24.151039123535156 -22.35027641057968 4.001261405646801 -0.8236755430698395 54.68115985393524 -5.42692556977272 0.9373665042221546 -2.724429666996002 17.532854676246643
